<svg width="188" height="42" viewBox="0 0 188 42" fill="none" xmlns="http://www.w3.org/2000/svg">
<path d="M67.91 17.72C67.91 18.94 67.63 20.06 67.07 21.08C66.51 22.08 65.65 22.89 64.49 23.51C63.33 24.13 61.89 24.44 60.17 24.44H56.99V32H51.86V10.94H60.17C61.85 10.94 63.27 11.23 64.43 11.81C65.59 12.39 66.46 13.19 67.04 14.21C67.62 15.23 67.91 16.4 67.91 17.72ZM59.78 20.36C60.76 20.36 61.49 20.13 61.97 19.67C62.45 19.21 62.69 18.56 62.69 17.72C62.69 16.88 62.45 16.23 61.97 15.77C61.49 15.31 60.76 15.08 59.78 15.08H56.99V20.36H59.78ZM78.2007 32.24C76.5607 32.24 75.0807 31.89 73.7607 31.19C72.4607 30.49 71.4307 29.49 70.6707 28.19C69.9307 26.89 69.5607 25.37 69.5607 23.63C69.5607 21.91 69.9407 20.4 70.7007 19.1C71.4607 17.78 72.5007 16.77 73.8207 16.07C75.1407 15.37 76.6207 15.02 78.2607 15.02C79.9007 15.02 81.3807 15.37 82.7007 16.07C84.0207 16.77 85.0607 17.78 85.8207 19.1C86.5807 20.4 86.9607 21.91 86.9607 23.63C86.9607 25.35 86.5707 26.87 85.7907 28.19C85.0307 29.49 83.9807 30.49 82.6407 31.19C81.3207 31.89 79.8407 32.24 78.2007 32.24ZM78.2007 27.8C79.1807 27.8 80.0107 27.44 80.6907 26.72C81.3907 26 81.7407 24.97 81.7407 23.63C81.7407 22.29 81.4007 21.26 80.7207 20.54C80.0607 19.82 79.2407 19.46 78.2607 19.46C77.2607 19.46 76.4307 19.82 75.7707 20.54C75.1107 21.24 74.7807 22.27 74.7807 23.63C74.7807 24.97 75.1007 26 75.7407 26.72C76.4007 27.44 77.2207 27.8 78.2007 27.8ZM99.9123 32L94.8123 24.98V32H89.6823V9.8H94.8123V22.07L99.8823 15.26H106.212L99.2523 23.66L106.272 32H99.9123ZM124.007 23.36C124.007 23.84 123.977 24.34 123.917 24.86H112.307C112.387 25.9 112.717 26.7 113.297 27.26C113.897 27.8 114.627 28.07 115.487 28.07C116.767 28.07 117.657 27.53 118.157 26.45H123.617C123.337 27.55 122.827 28.54 122.087 29.42C121.367 30.3 120.457 30.99 119.357 31.49C118.257 31.99 117.027 32.24 115.667 32.24C114.027 32.24 112.567 31.89 111.287 31.19C110.007 30.49 109.007 29.49 108.287 28.19C107.567 26.89 107.207 25.37 107.207 23.63C107.207 21.89 107.557 20.37 108.257 19.07C108.977 17.77 109.977 16.77 111.257 16.07C112.537 15.37 114.007 15.02 115.667 15.02C117.287 15.02 118.727 15.36 119.987 16.04C121.247 16.72 122.227 17.69 122.927 18.95C123.647 20.21 124.007 21.68 124.007 23.36ZM118.757 22.01C118.757 21.13 118.457 20.43 117.857 19.91C117.257 19.39 116.507 19.13 115.607 19.13C114.747 19.13 114.017 19.38 113.417 19.88C112.837 20.38 112.477 21.09 112.337 22.01H118.757ZM125.694 23.6C125.694 21.88 126.014 20.37 126.654 19.07C127.314 17.77 128.204 16.77 129.324 16.07C130.444 15.37 131.694 15.02 133.074 15.02C134.174 15.02 135.174 15.25 136.074 15.71C136.994 16.17 137.714 16.79 138.234 17.57V9.8H143.364V32H138.234V29.6C137.754 30.4 137.064 31.04 136.164 31.52C135.284 32 134.254 32.24 133.074 32.24C131.694 32.24 130.444 31.89 129.324 31.19C128.204 30.47 127.314 29.46 126.654 28.16C126.014 26.84 125.694 25.32 125.694 23.6ZM138.234 23.63C138.234 22.35 137.874 21.34 137.154 20.6C136.454 19.86 135.594 19.49 134.574 19.49C133.554 19.49 132.684 19.86 131.964 20.6C131.264 21.32 130.914 22.32 130.914 23.6C130.914 24.88 131.264 25.9 131.964 26.66C132.684 27.4 133.554 27.77 134.574 27.77C135.594 27.77 136.454 27.4 137.154 26.66C137.874 25.92 138.234 24.91 138.234 23.63ZM162.855 23.36C162.855 23.84 162.825 24.34 162.765 24.86H151.155C151.235 25.9 151.565 26.7 152.145 27.26C152.745 27.8 153.475 28.07 154.335 28.07C155.615 28.07 156.505 27.53 157.005 26.45H162.465C162.185 27.55 161.675 28.54 160.935 29.42C160.215 30.3 159.305 30.99 158.205 31.49C157.105 31.99 155.875 32.24 154.515 32.24C152.875 32.24 151.415 31.89 150.135 31.19C148.855 30.49 147.855 29.49 147.135 28.19C146.415 26.89 146.055 25.37 146.055 23.63C146.055 21.89 146.405 20.37 147.105 19.07C147.825 17.77 148.825 16.77 150.105 16.07C151.385 15.37 152.855 15.02 154.515 15.02C156.135 15.02 157.575 15.36 158.835 16.04C160.095 16.72 161.075 17.69 161.775 18.95C162.495 20.21 162.855 21.68 162.855 23.36ZM157.605 22.01C157.605 21.13 157.305 20.43 156.705 19.91C156.105 19.39 155.355 19.13 154.455 19.13C153.595 19.13 152.865 19.38 152.265 19.88C151.685 20.38 151.325 21.09 151.185 22.01H157.605ZM175.461 32L172.251 27.35L169.551 32H164.001L169.521 23.45L163.851 15.26H169.611L172.821 19.88L175.521 15.26H181.071L175.461 23.69L181.221 32H175.461Z" fill="#6F14E3"/>
<g clip-path="url(#clip0_14_2)">
<path d="M40.349 12.826C39.2915 10.3254 37.7779 8.07916 35.8501 6.15079C33.921 4.223 31.6743 2.70866 29.1748 1.65125C26.5858 0.556016 23.8351 0.000320435 21 0.000320435C18.1654 0.000320435 15.4149 0.555934 12.8257 1.65125C10.3251 2.70866 8.07884 4.22308 6.15039 6.15079C4.22268 8.07916 2.70834 10.3254 1.65085 12.826C0.555696 15.4152 0 18.1658 0 21.0003C0 23.8354 0.555614 26.586 1.65093 29.1751C2.70834 31.6746 4.22276 33.9213 6.15047 35.8491C8.07884 37.7782 10.3251 39.2918 12.8258 40.3492C15.4149 41.4439 18.1655 42.0002 21 42.0002C23.8352 42.0002 26.5859 41.4439 29.1749 40.3492C31.6743 39.2917 33.9211 37.7781 35.8502 35.8491C37.778 33.9213 39.2916 31.6745 40.3491 29.1751C41.4437 26.586 42 23.8354 42 21.0003C41.9999 18.1658 41.4436 15.4152 40.349 12.826Z" fill="#ED5564"/>
<path d="M0.00836182 21.5896C0.0801413 24.2158 0.631243 26.7653 1.65092 29.1749C2.70834 31.6743 4.22276 33.9211 6.15047 35.8489C8.07883 37.778 10.3251 39.2916 12.8258 40.349C15.4149 41.4436 18.1654 41.9999 21 41.9999C23.8352 41.9999 26.5859 41.4436 29.1748 40.349C31.6743 39.2915 33.9211 37.7779 35.8502 35.8489C37.778 33.9211 39.2916 31.6743 40.3491 29.1749C41.3694 26.7653 41.9205 24.2158 41.9923 21.5896H0.00836182Z" fill="#E6E9ED"/>
<path d="M41.8999 23.0688C41.9665 22.3843 41.9999 21.6947 41.9999 21C41.9999 20.2194 41.9576 19.4453 41.8743 18.6794C40.8309 18.8403 39.3326 19.0499 37.4447 19.2581C33.8608 19.6535 28.1007 20.1252 21 20.1252C13.8998 20.1252 8.13905 19.6535 4.5559 19.2581C2.66732 19.0498 1.16955 18.8403 0.12625 18.6794C0.0423294 19.4453 0 20.2195 0 21C0 21.6947 0.0333057 22.3844 0.099999 23.0688C3.50686 23.5815 11.0127 24.4991 21 24.4991C30.9872 24.4991 38.493 23.5815 41.8999 23.0688Z" fill="#434A54"/>
<path d="M25.3758 21.8748C25.3758 24.2914 23.4159 26.2499 20.9999 26.2499C18.5839 26.2499 16.6248 24.2914 16.6248 21.8748C16.6248 19.4586 18.5839 17.5002 20.9999 17.5002C23.4159 17.5002 25.3758 19.4587 25.3758 21.8748Z" fill="#E6E9ED"/>
<path d="M21 13.9999C16.6575 13.9999 13.125 17.533 13.125 21.8748C13.125 26.2167 16.6575 29.7491 21 29.7491C25.3424 29.7491 28.8749 26.2166 28.8749 21.8748C28.8749 17.533 25.3425 13.9999 21 13.9999ZM21 25.3759C19.0704 25.3759 17.5002 23.8044 17.5002 21.8748C17.5002 19.9452 19.0703 18.375 21 18.375C22.9303 18.375 24.499 19.9452 24.499 21.8748C24.499 23.8044 22.9303 25.3759 21 25.3759Z" fill="#434A54"/>
<path opacity="0.2" d="M40.349 12.8258C39.2915 10.3252 37.7779 8.07892 35.8501 6.15055C33.921 4.22276 31.6742 2.70842 29.1747 1.651C26.5858 0.555772 23.8351 7.62939e-05 20.9999 7.62939e-05C20.7071 7.62939e-05 20.4154 0.00647492 20.1251 0.0180417C22.6509 0.120584 25.1014 0.668569 27.424 1.651C29.9258 2.70842 32.1715 4.22284 34.0991 6.15055C36.0269 8.07892 37.542 10.3252 38.5993 12.8258C39.6952 15.4149 40.2489 18.1655 40.2489 21.0001C40.2489 23.8352 39.6952 26.5859 38.5993 29.1749C37.5419 31.6744 36.0269 33.9212 34.0991 35.8489C32.1715 37.7781 29.9258 39.2917 27.424 40.3491C25.1014 41.3309 22.6508 41.8795 20.1251 41.982C20.4154 41.9936 20.707 42 20.9999 42C23.8351 42 26.5858 41.4437 29.1747 40.3491C31.6742 39.2916 33.921 37.778 35.8501 35.8489C37.7779 33.9212 39.2915 31.6743 40.349 29.1749C41.4436 26.5859 41.9999 23.8352 41.9999 21.0001C41.9999 18.1655 41.4436 15.4149 40.349 12.8258Z" fill="white"/>
<path opacity="0.1" d="M1.65093 29.1751C2.70834 31.6746 4.22276 33.9213 6.15047 35.8491C8.07884 37.7782 10.3251 39.2918 12.8258 40.3492C15.4149 41.4439 18.1655 42.0002 21 42.0002C21.2929 42.0002 21.5845 41.9938 21.8748 41.9822C19.3491 41.8797 16.8979 41.331 14.5753 40.3492C12.0747 39.2917 9.82911 37.7781 7.90074 35.8491C5.97238 33.9213 4.45861 31.6745 3.40054 29.1751C2.30523 26.5861 1.75027 23.8354 1.75027 21.0003C1.75027 18.1657 2.30523 15.4151 3.40046 12.826C4.45853 10.3253 5.9723 8.07899 7.90066 6.15137C9.82903 4.223 12.0746 2.70858 14.5752 1.65117C16.8978 0.668731 19.349 0.120746 21.8748 0.0182038C21.5844 0.00671906 21.2928 0.000320435 21 0.000320435C18.1654 0.000320435 15.4149 0.555934 12.8257 1.65125C10.3251 2.70866 8.07884 4.22308 6.15039 6.15145C4.22268 8.07916 2.70834 10.3254 1.65085 12.826C0.555696 15.4152 0 18.1658 0 21.0003C0 23.8354 0.555696 26.5861 1.65093 29.1751Z" fill="black"/>
</g>
<defs>
<clipPath id="clip0_14_2">
<rect width="42" height="42" fill="white"/>
</clipPath>
</defs>
</svg>
